<svg width="150" height="36" viewBox="0 0 150 36" fill="none" xmlns="http://www.w3.org/2000/svg">
<path d="M13.4522 0H4.49462C1.99409 0 0 1.96078 0 4.41955V26.455H13.4522C20.8905 26.455 26.9044 20.5416 26.9044 13.2275C26.9044 5.91348 20.8905 0 13.4522 0Z" fill="#6EC818"/>
<path d="M8.95759 15.0015C9.93881 15.0015 10.7618 14.2235 10.7618 13.2275C10.7618 12.2627 9.97046 11.4535 8.95759 11.4535C7.94472 11.4535 7.15341 12.2316 7.15341 13.2275C7.18506 14.2235 7.97637 15.0015 8.95759 15.0015Z" fill="white"/>
<path d="M17.9468 15.0015C18.9281 15.0015 19.751 14.2235 19.751 13.2275C19.751 12.2627 18.9597 11.4535 17.9468 11.4535C16.9656 11.4535 16.1427 12.2316 16.1427 13.2275C16.1427 14.2235 16.9656 15.0015 17.9468 15.0015Z" fill="white"/>
<path d="M125.311 3.73483L117.24 22.4401C117.145 22.658 117.303 22.907 117.556 22.907H120.595C120.722 22.907 120.848 22.8136 120.912 22.6891L122.969 17.8649C123.032 17.7404 123.159 17.6471 123.286 17.6471H130.977C131.104 17.6471 131.23 17.7404 131.294 17.8649L133.351 22.6891C133.414 22.8136 133.541 22.907 133.667 22.907H136.706C136.959 22.907 137.118 22.658 137.023 22.4401L129.015 3.73483C128.951 3.61034 128.825 3.51697 128.698 3.51697H125.628C125.501 3.51697 125.375 3.61034 125.311 3.73483ZM124.678 13.9122L126.799 8.93247C126.926 8.62123 127.4 8.62123 127.527 8.93247L129.648 13.9122C129.743 14.1612 129.553 14.4413 129.299 14.4413H125.09C124.773 14.4413 124.583 14.1612 124.678 13.9122Z" fill="#6EC818"/>
<path d="M77.5164 3.51697H74.8259C74.636 3.51697 74.4778 3.67259 74.4778 3.85933V7.46966H72.0722C71.8823 7.46966 71.724 7.62528 71.724 7.81202V10.2085C71.724 10.3953 71.8823 10.5509 72.0722 10.5509H74.4778V22.5646C74.4778 22.7513 74.636 22.907 74.8259 22.907H77.5164C77.7063 22.907 77.8646 22.7513 77.8646 22.5646V10.5509H80.6183C80.8082 10.5509 80.9665 10.3953 80.9665 10.2085V7.81202C80.9665 7.62528 80.8082 7.46966 80.6183 7.46966H77.8646V3.85933C77.8646 3.67259 77.7063 3.51697 77.5164 3.51697Z" fill="#002D2D"/>
<path d="M89.4809 11.0489C90.019 10.831 90.6837 10.7065 91.475 10.7065C92.2347 10.7065 92.8677 10.8933 93.4375 11.2979C94.0072 11.7025 94.4187 12.2316 94.7036 12.9163L94.7669 13.103C94.8302 13.2587 94.9568 13.352 95.1467 13.352H98.0587C98.2803 13.352 98.4702 13.1342 98.3752 12.9163L98.2486 12.4806C97.7738 10.9866 96.9192 9.77281 95.6531 8.87023C94.3554 7.93652 92.8044 7.50079 91.0319 7.50079C88.8162 7.50079 86.9488 8.27888 85.5561 9.77281C84.195 11.2356 83.4987 13.0719 83.4987 15.2194C83.4987 17.3981 84.195 19.2344 85.5561 20.6661C86.9804 22.16 88.8162 22.9381 91.0319 22.9381C92.8044 22.9381 94.3554 22.4712 95.6531 21.5375C96.8876 20.6349 97.7738 19.4211 98.2486 17.9272L98.3752 17.4915C98.4385 17.2736 98.2803 17.0557 98.0271 17.0557H95.115C94.9568 17.0557 94.7985 17.1491 94.7352 17.3047L94.6719 17.4915C94.4187 18.1451 93.9756 18.6742 93.4058 19.1099C92.8361 19.5145 92.203 19.7012 91.4434 19.7012C90.019 19.7012 88.9112 19.2655 88.1199 18.394C87.3286 17.5226 86.9488 16.4955 86.9488 15.1883C86.9488 13.8811 87.3286 12.854 88.1199 11.9826C88.4997 11.578 88.9429 11.2667 89.4809 11.0489Z" fill="#002D2D"/>
<path d="M110.561 8.90135C109.865 8.62123 109.01 8.49674 108.061 8.49674C107.048 8.49674 106.162 8.74573 105.37 9.24371C105.117 9.39932 104.864 9.58606 104.642 9.77281V3.85933C104.642 3.67259 104.484 3.51697 104.294 3.51697H101.699C101.509 3.51697 101.351 3.67259 101.351 3.85933V22.5646C101.351 22.7513 101.509 22.907 101.699 22.907H104.294C104.484 22.907 104.642 22.7513 104.642 22.5646V14.8459C104.642 13.85 104.959 13.0719 105.592 12.4806C106.257 11.8581 107.016 11.578 107.966 11.578C108.884 11.578 109.58 11.8581 110.15 12.4494C110.72 13.0408 111.004 13.8189 111.004 14.8459V22.6268C111.004 22.8136 111.163 22.9692 111.353 22.9692H113.948C114.138 22.9692 114.296 22.8136 114.296 22.6268V14.7526C114.296 12.854 113.695 11.2979 112.492 10.1463C111.891 9.58606 111.258 9.18146 110.561 8.90135Z" fill="#002D2D"/>
<path d="M64.5073 8.80797C63.3995 7.90539 62.0068 7.43854 60.3609 7.43854C58.0819 7.43854 56.2144 8.21663 54.8217 9.71056C53.4923 11.1734 52.8276 13.0097 52.8276 15.1572C52.8276 17.3047 53.4923 19.141 54.8534 20.6038C56.2461 22.0977 58.0502 22.8758 60.2659 22.8758C61.9751 22.8758 63.3995 22.4401 64.539 21.5375V22.5335C64.539 22.7202 64.6972 22.8758 64.8871 22.8758H67.6725C67.8624 22.8758 68.0207 22.7202 68.0207 22.5335V7.81202C68.0207 7.62528 67.8624 7.46966 67.6725 7.46966H64.8871C64.6972 7.46966 64.539 7.62528 64.539 7.81202V8.80797H64.5073ZM60.4875 10.7065C61.7852 10.7065 62.7664 11.1422 63.5261 11.9826C64.2541 12.8229 64.6023 13.8811 64.6023 15.1883C64.6023 16.4955 64.2541 17.5537 63.5261 18.394C62.7981 19.2655 61.7852 19.6701 60.4875 19.6701C59.1897 19.6701 58.1769 19.2344 57.3855 18.3629C56.6259 17.5226 56.2461 16.4644 56.2461 15.1572C56.2461 13.85 56.6259 12.7918 57.3855 11.9515C58.2085 11.1111 59.2214 10.7065 60.4875 10.7065Z" fill="#002D2D"/>
<path d="M43.0471 3.51697H36.2418C36.0519 3.51697 35.8937 3.67259 35.8937 3.85933V4.38843C35.8937 4.41955 35.8937 4.41955 35.8937 4.45067V22.5957C35.8937 22.7825 36.0519 22.9381 36.2418 22.9381H38.9956C39.1855 22.9381 39.3438 22.7825 39.3438 22.5957V17.6159H42.8572C46.877 17.6159 50.2638 14.3791 50.2005 10.4575C50.1372 6.5982 46.972 3.51697 43.0471 3.51697ZM43.0471 14.2857H39.597C39.4071 14.2857 39.2488 14.1301 39.2488 13.9434V7.18955C39.2488 7.00281 39.4071 6.84719 39.597 6.84719H42.9205C44.9462 6.84719 46.7187 8.34112 46.8453 10.333C47.0036 12.4806 45.2311 14.2857 43.0471 14.2857Z" fill="#002D2D"/>
<path d="M143.195 9.24371H140.409C140.22 9.24371 140.061 9.39933 140.061 9.58607V22.5957C140.061 22.7825 140.22 22.9381 140.409 22.9381H143.195C143.385 22.9381 143.543 22.7825 143.543 22.5957V9.58607C143.543 9.39933 143.416 9.24371 143.195 9.24371Z" fill="#6EC818"/>
<path d="M143.29 6.94056H140.346C140.188 6.94056 140.061 6.81607 140.061 6.69157V3.79708C140.061 3.64146 140.188 3.51697 140.346 3.51697H143.29C143.448 3.51697 143.543 3.64146 143.543 3.79708V6.69157C143.543 6.84719 143.448 6.94056 143.29 6.94056Z" fill="#6EC818"/>
<path d="M0 26.455L7.40663 34.9829C7.40663 34.9829 7.40663 34.9829 7.43828 35.014C7.46993 35.0452 7.50159 35.0763 7.53324 35.1074L7.56489 35.1385C7.59654 35.1697 7.62819 35.1696 7.65985 35.2008C7.6915 35.2008 7.6915 35.2319 7.72315 35.2319C7.7548 35.263 7.81811 35.263 7.84976 35.263H7.88141C7.94472 35.263 8.00802 35.2941 8.07133 35.2941C8.57776 35.2941 8.95759 34.8895 8.95759 34.4227V26.455H0Z" fill="#14A032"/>
<path d="M36.3685 33.0532H35.862V28.7271H37.8561C38.3309 28.7271 38.6791 28.8515 38.9639 29.1005C39.2488 29.3495 39.3754 29.6919 39.3754 30.1276C39.3754 30.5633 39.2488 30.9057 38.9639 31.1547C38.6791 31.4037 38.3309 31.5282 37.8561 31.5282H36.3685V33.0532ZM36.3685 29.1939V31.0613H37.8245C38.1726 31.0613 38.4258 30.9679 38.6158 30.8123C38.8057 30.6567 38.869 30.4077 38.869 30.1276C38.869 29.8475 38.774 29.5985 38.6158 29.4429C38.4258 29.2873 38.1726 29.1939 37.8245 29.1939H36.3685Z" fill="#002D2D"/>
<path d="M42.7622 32.5241C42.509 32.8976 42.0975 33.0844 41.5594 33.0844C41.0846 33.0844 40.7048 32.9287 40.3883 32.5864C40.1034 32.2752 39.9451 31.8705 39.9451 31.4037C39.9451 30.9368 40.1034 30.5322 40.3883 30.221C40.7048 29.8786 41.0846 29.723 41.5911 29.723C42.0975 29.723 42.4773 29.9098 42.7622 30.3144V29.7853H43.2686V33.0532H42.7622V32.5241ZM41.6227 32.6486C41.9709 32.6486 42.2558 32.5241 42.4773 32.2752C42.6672 32.0573 42.7622 31.7461 42.7622 31.4037C42.7622 31.0613 42.6672 30.7501 42.4773 30.5322C42.2558 30.2832 41.9709 30.1588 41.6227 30.1588C41.2745 30.1588 40.9897 30.2832 40.7681 30.5322C40.5465 30.7501 40.4516 31.0613 40.4516 31.4037C40.4516 31.7461 40.5465 32.0573 40.7681 32.2752C40.9897 32.5241 41.2745 32.6486 41.6227 32.6486Z" fill="#002D2D"/>
<path d="M44.693 33.0532V30.221H44.0283V29.7853H44.693V28.6026H45.1994V29.7853H45.9591V30.221H45.1994V33.0532H44.693Z" fill="#002D2D"/>
<path d="M47.2568 29.225H46.7187V28.5714H47.2568V29.225ZM46.7187 29.7853H47.2252V33.0532H46.7187V29.7853Z" fill="#002D2D"/>
<path d="M49.8207 32.6486C50.2638 32.6486 50.5803 32.4619 50.7702 32.0884H51.3083C51.1817 32.3996 51.0234 32.6175 50.7702 32.8043C50.517 32.991 50.2005 33.0844 49.789 33.0844C49.2826 33.0844 48.8711 32.9287 48.5546 32.5864C48.238 32.2752 48.1114 31.8705 48.1114 31.4037C48.1114 30.9057 48.2697 30.5322 48.5546 30.221C48.8711 29.8786 49.2826 29.723 49.7574 29.723C50.2638 29.723 50.6436 29.8786 50.9601 30.221C51.245 30.5322 51.4033 30.9368 51.4033 31.4037V31.5904H48.6179C48.6495 31.9017 48.7761 32.1507 48.9977 32.3374C49.2193 32.5553 49.4725 32.6486 49.8207 32.6486ZM49.7574 30.1588C49.4408 30.1588 49.1876 30.2521 48.9977 30.4389C48.8078 30.6256 48.6812 30.8435 48.6495 31.1236H50.8968C50.8652 30.8435 50.7386 30.5945 50.5487 30.4389C50.3271 30.2521 50.0739 30.1588 49.7574 30.1588Z" fill="#002D2D"/>
<path d="M52.796 29.7853V30.2832C52.9226 30.1276 53.0492 30.0031 53.2391 29.8786C53.3974 29.7853 53.6189 29.723 53.8405 29.723C54.0621 29.723 54.252 29.7541 54.4102 29.8164C54.5685 29.8786 54.6951 29.972 54.8217 30.0965C55.1066 30.3766 55.2332 30.719 55.2332 31.1547V33.0532H54.7267V31.1547C54.7267 30.8435 54.6318 30.6256 54.4735 30.4389C54.3153 30.2521 54.0621 30.1588 53.8088 30.1588C53.524 30.1588 53.3024 30.2521 53.1125 30.4389C52.9226 30.6256 52.8276 30.8746 52.8276 31.1547V33.0221H52.3212V29.7853H52.796Z" fill="#002D2D"/>
<path d="M56.5309 33.0532V30.221H55.8662V29.7853H56.5309V28.6026H57.0374V29.7853H57.797V30.221H57.0374V33.0532H56.5309Z" fill="#002D2D"/>
<path d="M61.8169 32.6486C62.26 32.6486 62.5765 32.4619 62.7664 32.0884H63.3045C63.1779 32.3996 63.0196 32.6175 62.7664 32.8043C62.5132 32.991 62.1967 33.0844 61.7852 33.0844C61.2788 33.0844 60.8673 32.9287 60.5508 32.5864C60.2342 32.2752 60.1076 31.8705 60.1076 31.4037C60.1076 30.9057 60.2659 30.5322 60.5508 30.221C60.8673 29.8786 61.2788 29.723 61.7536 29.723C62.26 29.723 62.6398 29.8786 62.9563 30.221C63.2412 30.5322 63.3995 30.9368 63.3995 31.4037V31.5904H60.6141C60.6457 31.9017 60.7723 32.1507 60.9939 32.3374C61.2155 32.5553 61.5003 32.6486 61.8169 32.6486ZM61.7852 30.1588C61.4687 30.1588 61.2155 30.2521 61.0256 30.4389C60.8356 30.6256 60.709 30.8435 60.6774 31.1236H62.9247C62.893 30.8435 62.7664 30.5945 62.5765 30.4389C62.3549 30.2521 62.0701 30.1588 61.7852 30.1588Z" fill="#002D2D"/>
<path d="M64.7922 29.7853V30.2832C64.9188 30.1276 65.0454 30.0031 65.2353 29.8786C65.3936 29.7853 65.6151 29.723 65.8367 29.723C66.0583 29.723 66.2482 29.7541 66.4064 29.8164C66.5647 29.8786 66.6913 29.972 66.8179 30.0965C67.1028 30.3766 67.2294 30.719 67.2294 31.1547V33.0532H66.723V31.1547C66.723 30.8435 66.628 30.6256 66.4697 30.4389C66.3115 30.2521 66.0583 30.1588 65.805 30.1588C65.5202 30.1588 65.2986 30.2521 65.1087 30.4389C64.9188 30.6256 64.8238 30.8746 64.8238 31.1547V33.0221H64.3174V29.7853H64.7922Z" fill="#002D2D"/>
<path d="M70.9011 30.2832V29.7541H71.4075V32.9288C71.4075 33.3956 71.2809 33.7691 70.996 34.0181C70.7111 34.2671 70.363 34.3916 69.8882 34.3916C69.4134 34.3916 69.0652 34.2982 68.812 34.1426C68.5588 33.9558 68.3689 33.738 68.2739 33.4579H68.812C68.9386 33.8002 69.2868 33.9558 69.7932 33.9558C70.1731 33.9558 70.4579 33.8625 70.6162 33.7068C70.7744 33.5201 70.8694 33.2711 70.8694 32.9288V32.493C70.5845 32.8665 70.2047 33.0844 69.6666 33.0844C69.1918 33.0844 68.812 32.9288 68.4955 32.5864C68.2106 32.2752 68.0524 31.8706 68.0524 31.4037C68.0524 30.9368 68.2106 30.5322 68.4955 30.221C68.812 29.9098 69.1918 29.723 69.6983 29.723C70.268 29.723 70.6478 29.9098 70.9011 30.2832ZM69.7932 32.5864C69.9831 32.5864 70.1414 32.5553 70.268 32.493C70.3946 32.4308 70.5212 32.3374 70.6478 32.244C70.8377 32.0262 70.9327 31.7149 70.9327 31.3726C70.9327 31.0302 70.8377 30.7501 70.6478 30.5011C70.4263 30.2521 70.1414 30.1588 69.7932 30.1588C69.4451 30.1588 69.1602 30.2832 68.9386 30.5011C68.7171 30.719 68.6221 31.0302 68.6221 31.3726C68.6221 31.7149 68.7171 31.995 68.9386 32.244C69.1285 32.493 69.4134 32.5864 69.7932 32.5864Z" fill="#002D2D"/>
<path d="M75.1108 32.5241C74.8576 32.8976 74.4461 33.0844 73.908 33.0844C73.4332 33.0844 73.0534 32.9287 72.7369 32.5864C72.452 32.2752 72.2938 31.8705 72.2938 31.4037C72.2938 30.9368 72.452 30.5322 72.7369 30.221C73.0534 29.8786 73.4332 29.723 73.9397 29.723C74.4461 29.723 74.8259 29.9098 75.1108 30.3144V29.7853H75.6172V33.0532H75.1108V32.5241ZM74.003 32.6486C74.3512 32.6486 74.636 32.5241 74.8576 32.2752C75.0475 32.0573 75.1425 31.7461 75.1425 31.4037C75.1425 31.0613 75.0475 30.7501 74.8576 30.5322C74.636 30.2832 74.3512 30.1588 74.003 30.1588C73.6548 30.1588 73.3699 30.2832 73.1484 30.5322C72.9268 30.7501 72.8319 31.0613 72.8319 31.4037C72.8319 31.7461 72.9268 32.0573 73.1484 32.2752C73.3699 32.5241 73.6548 32.6486 74.003 32.6486Z" fill="#002D2D"/>
<path d="M79.3206 30.2832V29.7541H79.827V32.9288C79.827 33.3956 79.7004 33.7691 79.4155 34.0181C79.1306 34.2671 78.7825 34.3916 78.3077 34.3916C77.8329 34.3916 77.4847 34.2982 77.2315 34.1426C76.9783 33.9558 76.7884 33.738 76.6934 33.4579H77.2315C77.3581 33.8002 77.7063 33.9558 78.2127 33.9558C78.5926 33.9558 78.8774 33.8625 79.0357 33.7068C79.1939 33.5201 79.2889 33.2711 79.2889 32.9288V32.493C79.004 32.8665 78.6242 33.0844 78.0861 33.0844C77.6113 33.0844 77.2315 32.9288 76.915 32.5864C76.6301 32.2752 76.4718 31.8706 76.4718 31.4037C76.4718 30.9368 76.6301 30.5322 76.915 30.221C77.2315 29.9098 77.6113 29.723 78.1178 29.723C78.6875 29.723 79.0673 29.9098 79.3206 30.2832ZM78.2127 32.5864C78.4026 32.5864 78.5609 32.5553 78.6875 32.493C78.8141 32.4308 78.9407 32.3374 79.0673 32.244C79.2572 32.0262 79.3522 31.7149 79.3522 31.3726C79.3522 31.0302 79.2572 30.7501 79.0673 30.5011C78.8458 30.2521 78.5609 30.1588 78.2127 30.1588C77.8645 30.1588 77.5797 30.2832 77.3581 30.5011C77.1365 30.719 77.0416 31.0302 77.0416 31.3726C77.0416 31.7149 77.1365 31.995 77.3581 32.244C77.548 32.493 77.8645 32.5864 78.2127 32.5864Z" fill="#002D2D"/>
<path d="M82.4225 32.6486C82.8656 32.6486 83.1821 32.4619 83.372 32.0884H83.9101C83.7835 32.3996 83.6253 32.6175 83.372 32.8043C83.1188 32.991 82.8023 33.0844 82.3908 33.0844C81.8844 33.0844 81.4729 32.9287 81.1564 32.5864C80.8399 32.2752 80.7133 31.8705 80.7133 31.4037C80.7133 30.9057 80.8715 30.5322 81.1564 30.221C81.4729 29.8786 81.8844 29.723 82.3592 29.723C82.8656 29.723 83.2454 29.8786 83.562 30.221C83.8468 30.5322 84.0051 30.9368 84.0051 31.4037V31.5904H81.2197C81.2513 31.9017 81.378 32.1507 81.5995 32.3374C81.8211 32.5553 82.106 32.6486 82.4225 32.6486ZM82.3908 30.1588C82.0743 30.1588 81.8211 30.2521 81.6312 30.4389C81.4413 30.6256 81.3146 30.8435 81.283 31.1236H83.5303C83.4987 30.8435 83.372 30.5945 83.1821 30.4389C82.9606 30.2521 82.7073 30.1588 82.3908 30.1588Z" fill="#002D2D"/>
<path d="M85.4294 30.2832C85.651 29.9098 85.9992 29.723 86.4423 29.723C86.6639 29.723 86.8538 29.7853 87.0437 29.9098C87.2336 30.0343 87.3919 30.1899 87.4868 30.4077C87.6451 30.1276 87.8667 29.9409 88.1832 29.8164C88.3098 29.7541 88.4681 29.7541 88.6263 29.7541C88.7846 29.7541 88.9428 29.7853 89.1011 29.8475C89.2594 29.9098 89.386 30.0031 89.4809 30.1276C89.7342 30.3766 89.8608 30.719 89.8608 31.0925V33.0532H89.3543V31.0925C89.3543 30.8123 89.291 30.5945 89.1328 30.4389C88.9745 30.2832 88.7846 30.1899 88.5314 30.1899C88.2781 30.1899 88.0566 30.2832 87.8983 30.4389C87.7084 30.5945 87.6451 30.8435 87.6451 31.1236V33.0844H87.1387V31.1236C87.1387 30.8435 87.0754 30.6256 86.9171 30.47C86.7588 30.3144 86.5689 30.221 86.3157 30.221C86.0625 30.221 85.8409 30.3144 85.6827 30.47C85.4928 30.6256 85.4294 30.8746 85.4294 31.1547V33.1155H84.923V29.7853H85.4294V30.2832Z" fill="#002D2D"/>
<path d="M92.4246 32.6486C92.8677 32.6486 93.1842 32.4619 93.3742 32.0884H93.9123C93.7856 32.3996 93.6274 32.6175 93.3742 32.8043C93.1209 32.991 92.8044 33.0844 92.3929 33.0844C91.8865 33.0844 91.475 32.9287 91.1585 32.5864C90.842 32.2752 90.7154 31.8705 90.7154 31.4037C90.7154 30.9057 90.8736 30.5322 91.1585 30.221C91.475 29.8786 91.8865 29.723 92.3613 29.723C92.8677 29.723 93.2476 29.8786 93.5641 30.221C93.8489 30.5322 94.0072 30.9368 94.0072 31.4037V31.5904H91.2218C91.2535 31.9017 91.3801 32.1507 91.6016 32.3374C91.8232 32.5553 92.0764 32.6486 92.4246 32.6486ZM92.3929 30.1588C92.0764 30.1588 91.8232 30.2521 91.6333 30.4389C91.4434 30.6256 91.3168 30.8435 91.2851 31.1236H93.5324C93.5008 30.8435 93.3742 30.5945 93.1842 30.4389C92.931 30.2521 92.6778 30.1588 92.3929 30.1588Z" fill="#002D2D"/>
<path d="M95.3999 29.7853V30.2832C95.5265 30.1276 95.6531 30.0031 95.843 29.8786C96.0329 29.7541 96.2229 29.723 96.4444 29.723C96.666 29.723 96.8559 29.7541 97.0142 29.8164C97.1724 29.8786 97.299 29.972 97.4256 30.0965C97.7105 30.3766 97.8371 30.719 97.8371 31.1547V33.0532H97.3307V31.1547C97.3307 30.8435 97.2357 30.6256 97.0775 30.4389C96.9192 30.2521 96.666 30.1588 96.4128 30.1588C96.1279 30.1588 95.9063 30.2521 95.7164 30.4389C95.5265 30.6256 95.4315 30.8746 95.4315 31.1547V33.0221H94.9251V29.7853H95.3999Z" fill="#002D2D"/>
<path d="M99.1349 33.0532V30.221H98.4702V29.7853H99.1349V28.6026H99.6413V29.7853H100.401V30.221H99.6413V33.0532H99.1349Z" fill="#002D2D"/>
<path d="M105.529 32.5241C105.275 32.8976 104.864 33.0844 104.326 33.0844C103.851 33.0844 103.471 32.9287 103.155 32.5864C102.87 32.2752 102.712 31.8705 102.712 31.4037C102.712 30.9368 102.87 30.5322 103.155 30.221C103.471 29.8786 103.851 29.723 104.357 29.723C104.864 29.723 105.244 29.9098 105.529 30.3144V29.7853H106.035V33.0532H105.529V32.5241ZM104.421 32.6486C104.769 32.6486 105.054 32.5241 105.275 32.2752C105.465 32.0573 105.56 31.7461 105.56 31.4037C105.56 31.0613 105.465 30.7501 105.275 30.5322C105.054 30.2832 104.769 30.1588 104.421 30.1588C104.073 30.1588 103.788 30.2832 103.566 30.5322C103.345 30.7501 103.25 31.0613 103.25 31.4037C103.25 31.7461 103.345 32.0573 103.566 32.2752C103.756 32.5241 104.041 32.6486 104.421 32.6486Z" fill="#002D2D"/>
<path d="M107.491 33.0532V30.221H106.795V29.7853H107.491V28.6026H107.966V29.7853H108.725V30.221H107.966V33.0532H107.491Z" fill="#002D2D"/>
<path d="M112.745 32.6486C113.188 32.6486 113.505 32.4619 113.695 32.0884H114.233C114.106 32.3996 113.948 32.6175 113.695 32.8043C113.442 32.991 113.125 33.0844 112.714 33.0844C112.207 33.0844 111.796 32.9287 111.479 32.5864C111.163 32.2752 111.036 31.8705 111.036 31.4037C111.036 30.9057 111.194 30.5322 111.479 30.221C111.796 29.8786 112.207 29.723 112.682 29.723C113.188 29.723 113.568 29.8786 113.885 30.221C114.17 30.5322 114.328 30.9368 114.328 31.4037V31.5904H111.543C111.574 31.9017 111.701 32.1507 111.922 32.3374C112.144 32.5553 112.429 32.6486 112.745 32.6486ZM112.714 30.1588C112.397 30.1588 112.144 30.2521 111.954 30.4389C111.764 30.6256 111.638 30.8435 111.606 31.1236H113.853C113.822 30.8435 113.695 30.5945 113.505 30.4389C113.283 30.2521 113.03 30.1588 112.714 30.1588Z" fill="#002D2D"/>
<path d="M117.936 29.7852L116.639 33.0532H116.037L114.739 29.7852H115.278L116.322 32.5241L117.367 29.7852H117.936Z" fill="#002D2D"/>
<path d="M120.025 32.6486C120.469 32.6486 120.785 32.4619 120.975 32.0884H121.513C121.386 32.3996 121.228 32.6175 120.975 32.8043C120.722 32.991 120.405 33.0844 119.994 33.0844C119.487 33.0844 119.076 32.9287 118.759 32.5864C118.443 32.2752 118.316 31.8705 118.316 31.4037C118.316 30.9057 118.474 30.5322 118.759 30.221C119.076 29.8786 119.487 29.723 119.962 29.723C120.468 29.723 120.848 29.8786 121.165 30.221C121.45 30.5322 121.608 30.9368 121.608 31.4037V31.5904H118.823C118.854 31.9017 118.981 32.1507 119.202 32.3374C119.424 32.5553 119.677 32.6486 120.025 32.6486ZM119.962 30.1588C119.646 30.1588 119.392 30.2521 119.202 30.4389C119.013 30.6256 118.886 30.8435 118.854 31.1236H121.102C121.07 30.8435 120.943 30.5945 120.753 30.4389C120.532 30.2521 120.279 30.1588 119.962 30.1588Z" fill="#002D2D"/>
<path d="M124.267 29.723V30.221H124.203C123.855 30.221 123.539 30.3766 123.317 30.6567C123.096 30.9368 123.001 31.2481 123.001 31.6216V33.0532H122.494V29.7853H123.001V30.5945C123.096 30.2521 123.349 30.0031 123.697 29.8475C123.855 29.7853 124.014 29.7541 124.235 29.7541H124.267V29.723Z" fill="#002D2D"/>
<path d="M126.103 34.3293H125.565L126.166 32.991L124.805 29.7852H125.375L126.451 32.4619L127.527 29.7852H128.065L126.103 34.3293Z" fill="#002D2D"/>
<path d="M132.465 30.6567C132.433 30.3144 132.148 30.1588 131.642 30.1588C131.135 30.1588 130.882 30.3144 130.882 30.6256C130.882 30.7501 130.945 30.8435 131.04 30.9368C131.135 30.9991 131.294 31.0613 131.452 31.0925C131.61 31.1236 131.8 31.1858 131.99 31.217C132.18 31.2481 132.37 31.3103 132.528 31.3726C132.686 31.4348 132.813 31.5282 132.939 31.6527C133.034 31.7772 133.098 31.9328 133.098 32.1507C133.098 32.4619 132.971 32.7109 132.718 32.8665C132.465 33.0221 132.148 33.1155 131.737 33.1155C131.294 33.1155 130.945 32.991 130.692 32.7731C130.439 32.5864 130.312 32.3374 130.312 32.0262H130.819C130.85 32.3374 131.009 32.5241 131.325 32.6486C131.452 32.6798 131.547 32.7109 131.673 32.7109C131.8 32.7109 131.895 32.7109 131.99 32.6798C132.085 32.6486 132.18 32.6486 132.275 32.6175C132.496 32.5241 132.591 32.3997 132.591 32.1818C132.591 32.0573 132.528 31.9328 132.433 31.8706C132.338 31.8083 132.18 31.7461 132.022 31.6838C131.863 31.6527 131.673 31.5904 131.483 31.5593C131.294 31.5282 131.104 31.4659 130.945 31.4037C130.787 31.3414 130.661 31.2481 130.534 31.1236C130.439 30.9991 130.376 30.8435 130.376 30.6567C130.376 30.3455 130.471 30.1276 130.692 29.972C130.914 29.8164 131.23 29.723 131.673 29.723C132.085 29.723 132.401 29.8164 132.623 30.0031C132.813 30.1588 132.939 30.3766 132.971 30.6567H132.465Z" fill="#002D2D"/>
<path d="M134.301 33.0532V30.221H133.636V29.7853H134.301V28.6026H134.807V29.7853H135.567V30.221H134.807V33.0532H134.301Z" fill="#002D2D"/>
<path d="M137.751 32.6486C138.194 32.6486 138.51 32.4619 138.7 32.0884H139.238C139.112 32.3996 138.953 32.6175 138.7 32.8043C138.447 32.991 138.13 33.0844 137.719 33.0844C137.213 33.0844 136.801 32.9287 136.485 32.5864C136.168 32.2752 136.041 31.8705 136.041 31.4037C136.041 30.9057 136.2 30.5322 136.485 30.221C136.801 29.8786 137.213 29.723 137.687 29.723C138.194 29.723 138.574 29.8786 138.89 30.221C139.175 30.5322 139.333 30.9368 139.333 31.4037V31.5904H136.548C136.58 31.9017 136.706 32.1507 136.928 32.3374C137.149 32.5553 137.402 32.6486 137.751 32.6486ZM137.687 30.1588C137.371 30.1588 137.118 30.2521 136.928 30.4389C136.738 30.6256 136.611 30.8435 136.58 31.1236H138.827C138.795 30.8435 138.669 30.5945 138.479 30.4389C138.257 30.2521 138.004 30.1588 137.687 30.1588Z" fill="#002D2D"/>
<path d="M140.726 30.2832C140.979 29.9098 141.391 29.723 141.929 29.723C142.404 29.723 142.783 29.8786 143.1 30.221C143.385 30.5322 143.543 30.9368 143.543 31.4037C143.543 31.8705 143.385 32.2752 143.1 32.5864C142.815 32.9287 142.404 33.0844 141.897 33.0844C141.391 33.0844 141.011 32.8976 140.726 32.493V34.3293H140.22V29.7853H140.726V30.2832ZM141.834 30.1588C141.486 30.1588 141.201 30.2832 140.979 30.5322C140.789 30.7501 140.694 31.0613 140.694 31.4037C140.694 31.7461 140.789 32.0573 140.979 32.2752C141.201 32.5241 141.486 32.6486 141.834 32.6486C142.182 32.6486 142.467 32.5241 142.688 32.2752C142.91 32.0573 143.005 31.7461 143.005 31.4037C143.005 31.0613 142.91 30.7501 142.688 30.5322C142.498 30.2832 142.214 30.1588 141.834 30.1588Z" fill="#002D2D"/>
<path fill-rule="evenodd" clip-rule="evenodd" d="M149.083 6.38105C148.901 6.46035 148.707 6.5 148.5 6.5C148.293 6.5 148.099 6.46035 147.917 6.38105C147.736 6.30175 147.577 6.19422 147.442 6.05847C147.306 5.92272 147.198 5.76411 147.119 5.58266C147.04 5.40121 147 5.20699 147 5C147 4.79301 147.04 4.59879 147.119 4.41734C147.198 4.23589 147.306 4.07728 147.442 3.94153C147.577 3.80578 147.736 3.69825 147.917 3.61895C148.099 3.53965 148.293 3.5 148.5 3.5C148.707 3.5 148.901 3.53965 149.083 3.61895C149.264 3.69825 149.423 3.80578 149.558 3.94153C149.694 4.07728 149.802 4.23589 149.881 4.41734C149.96 4.59879 150 4.79301 150 5C150 5.20699 149.96 5.40121 149.881 5.58266C149.802 5.76411 149.694 5.92272 149.558 6.05847C149.423 6.19422 149.264 6.30175 149.083 6.38105ZM148.02 6.13709C148.171 6.20161 148.331 6.23387 148.5 6.23387C148.669 6.23387 148.829 6.20161 148.98 6.13709C149.13 6.07258 149.262 5.98454 149.373 5.87298C149.485 5.76142 149.573 5.63037 149.637 5.47984C149.702 5.3293 149.734 5.16935 149.734 5C149.734 4.83064 149.702 4.6707 149.637 4.52016C149.573 4.36962 149.485 4.23857 149.373 4.12701C149.262 4.01546 149.13 3.92742 148.98 3.8629C148.829 3.79839 148.669 3.76613 148.5 3.76613C148.331 3.76613 148.171 3.79839 148.02 3.8629C147.87 3.92742 147.739 4.01546 147.627 4.12701C147.516 4.23857 147.428 4.36962 147.363 4.52016C147.298 4.6707 147.266 4.83064 147.266 5C147.266 5.16935 147.298 5.3293 147.363 5.47984C147.428 5.63037 147.516 5.76142 147.627 5.87298C147.739 5.98454 147.87 6.07258 148.02 6.13709ZM148.238 5.84677V5.14516H148.468L148.895 5.84677H149.226L148.778 5.12097C148.896 5.10753 148.995 5.06317 149.073 4.9879C149.15 4.91263 149.189 4.79973 149.189 4.64919C149.189 4.48253 149.14 4.35484 149.042 4.26613C148.944 4.17742 148.792 4.13306 148.585 4.13306H147.923V5.84677H148.238ZM148.238 4.87903H148.468C148.516 4.87903 148.565 4.87702 148.613 4.87298C148.661 4.86895 148.705 4.85887 148.744 4.84274C148.783 4.82661 148.815 4.80242 148.839 4.77016C148.863 4.7379 148.875 4.69355 148.875 4.6371C148.875 4.58064 148.863 4.53629 148.839 4.50403C148.815 4.47177 148.783 4.44758 148.744 4.43145C148.705 4.41532 148.661 4.40591 148.613 4.40323C148.565 4.40054 148.516 4.39919 148.468 4.39919H148.238V4.87903Z" fill="#9FA4AE"/>
</svg>
