<?xml version="1.0" encoding="iso-8859-1"?>
<!-- Generator: Adobe Illustrator 16.0.0, SVG Export Plug-In . SVG Version: 6.00 Build 0)  -->
<!DOCTYPE svg PUBLIC "-//W3C//DTD SVG 1.1//EN" "http://www.w3.org/Graphics/SVG/1.1/DTD/svg11.dtd">
<svg version="1.1" id="Layer_1" xmlns="http://www.w3.org/2000/svg" xmlns:xlink="http://www.w3.org/1999/xlink" x="0px" y="0px"
	 viewBox="0 0 18 18" style="enable-background:new 0 0 18 18;" xml:space="preserve">
<g>
	<defs>
		<rect id="SVGID_1_" width="18" height="18"/>
	</defs>
	<clipPath id="SVGID_2_">
		<use xlink:href="#SVGID_1_"  style="overflow:visible;"/>
	</clipPath>
	<path style="clip-path:url(#SVGID_2_);fill:#02AFBE;" d="M3,14c0,0.553-0.447,1-1,1s-1-0.447-1-1s0.447-1,1-1S3,13.447,3,14"/>
	<path style="clip-path:url(#SVGID_2_);fill:#02AFBE;" d="M15,14c0,0.553,0.447,1,1,1s1-0.447,1-1s-0.447-1-1-1S15,13.447,15,14"/>
	<path style="clip-path:url(#SVGID_2_);fill:#02AFBE;" d="M10,17c0,0.553-0.447,1-1,1c-0.553,0-1-0.447-1-1s0.447-1,1-1
		C9.553,16,10,16.447,10,17"/>
	<path style="clip-path:url(#SVGID_2_);fill-rule:evenodd;clip-rule:evenodd;fill:#BEBDBD;" d="M14.5,3
		c-0.213,0-0.42,0.026-0.622,0.062C13.454,1.308,11.884,0,10,0C7.791,0,6,1.791,6,4c0,0.276-0.224,0.5-0.5,0.5S5,4.276,5,4
		c0-0.622,0.128-1.212,0.337-1.762C4.918,2.089,4.47,2,4,2C1.791,2,0,3.791,0,6s1.791,4,4,4h10.5c1.933,0,3.5-1.566,3.5-3.5
		S16.433,3,14.5,3"/>
	<path style="clip-path:url(#SVGID_2_);fill:#BEBDBD;" d="M6.5,11v4.215c-0.433-0.756-1.242-1.465-2.75-1.465
		c-0.138,0-0.25,0.112-0.25,0.25s0.112,0.25,0.25,0.25c2.709,0,2.75,2.638,2.75,2.75v0.001c0,0.138,0.112,0.249,0.25,0.249
		c0.136,0,0.247-0.108,0.25-0.243v-0.002v-0.001v-0.002V17v-6H6.5z"/>
	<path style="clip-path:url(#SVGID_2_);fill:#BEBDBD;" d="M14.25,13.75c-1.508,0-2.317,0.709-2.75,1.465V11H11v6
		c0,0.138,0.112,0.25,0.25,0.25S11.5,17.138,11.5,17c0-0.112,0.031-2.75,2.75-2.75c0.138,0,0.25-0.112,0.25-0.25
		S14.388,13.75,14.25,13.75"/>
	<path style="clip-path:url(#SVGID_2_);fill:#BEBDBD;" d="M8.75,11v4c0,0.138,0.112,0.25,0.25,0.25c0.138,0,0.25-0.112,0.25-0.25v-4
		H8.75z"/>
</g>
</svg>
