<?xml version="1.0" encoding="iso-8859-1"?>
<!-- Generator: Adobe Illustrator 16.0.0, SVG Export Plug-In . SVG Version: 6.00 Build 0)  -->
<!DOCTYPE svg PUBLIC "-//W3C//DTD SVG 1.1//EN" "http://www.w3.org/Graphics/SVG/1.1/DTD/svg11.dtd">
<svg version="1.1" id="Layer_1" xmlns="http://www.w3.org/2000/svg" xmlns:xlink="http://www.w3.org/1999/xlink" x="0px" y="0px"
	 viewBox="0 0 18 18" style="enable-background:new 0 0 18 18;" xml:space="preserve">
<g>
	<defs>
		<rect id="SVGID_1_" width="18" height="18"/>
	</defs>
	<clipPath id="SVGID_2_">
		<use xlink:href="#SVGID_1_"  style="overflow:visible;"/>
	</clipPath>
	<path style="clip-path:url(#SVGID_2_);fill-rule:evenodd;clip-rule:evenodd;fill:#DDDCDC;" d="M15,11
		c-0.018,0-0.033,0.005-0.05,0.005C14.708,9.309,13.263,8,11.5,8C9.567,8,8,9.567,8,11.5C8,11.776,7.776,12,7.5,12S7,11.776,7,11.5
		c0-0.495,0.1-0.962,0.248-1.408C7.007,10.036,6.759,10,6.5,10C4.567,10,3,11.567,3,13.5S4.567,17,6.5,17H15c1.656,0,3-1.343,3-3
		S16.656,11,15,11"/>
	<path style="clip-path:url(#SVGID_2_);fill-rule:evenodd;clip-rule:evenodd;fill:#DDDCDC;" d="M7.771,9
		c0.809-1.202,2.175-2,3.729-2c0.743,0,1.449,0.189,2.074,0.52c0.265-0.448,0.426-0.963,0.426-1.52c0-1.657-1.342-3-3-3
		c-0.273,0-0.533,0.048-0.785,0.117C9.677,1.873,8.441,1,7,1C5.559,1,4.324,1.873,3.787,3.118C3.535,3.048,3.273,3,3,3
		C1.342,3,0,4.342,0,6c0,1.656,1.343,3,3,3H7.771z"/>
</g>
</svg>
