<?xml version="1.0" encoding="iso-8859-1"?>
<!-- Generator: Adobe Illustrator 16.0.0, SVG Export Plug-In . SVG Version: 6.00 Build 0)  -->
<!DOCTYPE svg PUBLIC "-//W3C//DTD SVG 1.1//EN" "http://www.w3.org/Graphics/SVG/1.1/DTD/svg11.dtd">
<svg version="1.1" id="Layer_1" xmlns="http://www.w3.org/2000/svg" xmlns:xlink="http://www.w3.org/1999/xlink" x="0px" y="0px"
	 viewBox="0 0 18 18" style="enable-background:new 0 0 18 18;" xml:space="preserve">
<g>
	<defs>
		<rect id="SVGID_1_" width="18" height="18"/>
	</defs>
	<clipPath id="SVGID_2_">
		<use xlink:href="#SVGID_1_"  style="overflow:visible;"/>
	</clipPath>
	<path style="clip-path:url(#SVGID_2_);fill-rule:evenodd;clip-rule:evenodd;fill:#BEBDBD;" d="M14.5,3
		c-0.213,0-0.42,0.026-0.622,0.062C13.454,1.308,11.884,0,10,0C7.791,0,6,1.791,6,4c0,0.276-0.224,0.5-0.5,0.5S5,4.276,5,4
		c0-0.622,0.128-1.212,0.337-1.762C4.918,2.089,4.47,2,4,2C1.791,2,0,3.791,0,6s1.791,4,4,4h10.5c1.933,0,3.5-1.567,3.5-3.5
		S16.433,3,14.5,3"/>
	<path style="clip-path:url(#SVGID_2_);fill-rule:evenodd;clip-rule:evenodd;fill:#00697D;" d="M8,13.8C8,14.464,7.553,15,7,15
		s-1-0.536-1-1.2C6,13.137,7,11,7,11S8,13.137,8,13.8"/>
	<path style="clip-path:url(#SVGID_2_);fill-rule:evenodd;clip-rule:evenodd;fill:#00697D;" d="M4,13.8C4,14.464,3.553,15,3,15
		s-1-0.536-1-1.2C2,13.137,3,11,3,11S4,13.137,4,13.8"/>
	<path style="clip-path:url(#SVGID_2_);fill-rule:evenodd;clip-rule:evenodd;fill:#00697D;" d="M16,13.8c0,0.664-0.447,1.2-1,1.2
		s-1-0.536-1-1.2c0-0.663,1-2.8,1-2.8S16,13.137,16,13.8"/>
	<path style="clip-path:url(#SVGID_2_);fill-rule:evenodd;clip-rule:evenodd;fill:#00697D;" d="M12,13.8c0,0.664-0.447,1.2-1,1.2
		s-1-0.536-1-1.2c0-0.663,1-2.8,1-2.8S12,13.137,12,13.8"/>
	<path style="clip-path:url(#SVGID_2_);fill-rule:evenodd;clip-rule:evenodd;fill:#00697D;" d="M10,16.8c0,0.664-0.447,1.2-1,1.2
		c-0.553,0-1-0.536-1-1.2C8,16.137,9,14,9,14S10,16.137,10,16.8"/>
	<path style="clip-path:url(#SVGID_2_);fill-rule:evenodd;clip-rule:evenodd;fill:#00697D;" d="M6,16.8C6,17.464,5.553,18,5,18
		s-1-0.536-1-1.2C4,16.137,5,14,5,14S6,16.137,6,16.8"/>
	<path style="clip-path:url(#SVGID_2_);fill-rule:evenodd;clip-rule:evenodd;fill:#00697D;" d="M14,16.8c0,0.664-0.447,1.2-1,1.2
		s-1-0.536-1-1.2c0-0.663,1-2.8,1-2.8S14,16.137,14,16.8"/>
</g>
</svg>
