<?xml version="1.0" encoding="iso-8859-1"?>
<!-- Generator: Adobe Illustrator 16.0.0, SVG Export Plug-In . SVG Version: 6.00 Build 0)  -->
<!DOCTYPE svg PUBLIC "-//W3C//DTD SVG 1.1//EN" "http://www.w3.org/Graphics/SVG/1.1/DTD/svg11.dtd">
<svg version="1.1" id="Layer_1" xmlns="http://www.w3.org/2000/svg" xmlns:xlink="http://www.w3.org/1999/xlink" x="0px" y="0px"
	 viewBox="0 0 18 18" style="enable-background:new 0 0 18 18;" xml:space="preserve">
<g>
	<defs>
		<rect id="SVGID_1_" width="18" height="18"/>
	</defs>
	<clipPath id="SVGID_2_">
		<use xlink:href="#SVGID_1_"  style="overflow:visible;"/>
	</clipPath>
	<path style="clip-path:url(#SVGID_2_);fill-rule:evenodd;clip-rule:evenodd;fill:#DDDCDC;" d="M14.5,11
		c-0.213,0-0.42,0.026-0.622,0.062C13.454,9.308,11.884,8,10,8c-2.209,0-4,1.791-4,4c0,0.276-0.224,0.5-0.5,0.5S5,12.276,5,12
		c0-0.622,0.128-1.212,0.337-1.762C4.918,10.089,4.47,10,4,10c-2.209,0-4,1.791-4,4s1.791,4,4,4h10.5c1.933,0,3.5-1.567,3.5-3.5
		S16.433,11,14.5,11"/>
	<path style="clip-path:url(#SVGID_2_);fill:#C88C32;" d="M3.879,8.382l1.939,0.226C5.975,8.63,6.102,8.682,6.219,8.74
		c0.447-0.518,1-0.939,1.622-1.239C7.778,7.181,7.755,6.85,7.804,6.509c0.234-1.636,1.758-2.777,3.396-2.544
		c1.639,0.234,2.777,1.756,2.543,3.393c-0.052,0.36-0.174,0.691-0.337,0.994c0.476,0.447,0.868,0.985,1.143,1.6
		c0.156-0.043,0.343-0.051,0.56-0.016l1.882,0.318c0.168,0.015,0.323-0.058,0.395-0.206c0.07-0.148,0.034-0.327-0.09-0.436
		l-1.412-1.24c-0.278-0.244-0.411-0.52-0.374-0.777c0.037-0.257,0.241-0.485,0.577-0.641l1.702-0.795
		c0.149-0.07,0.234-0.231,0.208-0.394c-0.027-0.163-0.153-0.289-0.32-0.308l-1.94-0.226c-0.374-0.053-0.647-0.216-0.769-0.46
		c-0.114-0.227-0.087-0.515,0.077-0.814l0.874-1.603c0.079-0.143,0.053-0.321-0.062-0.437c-0.112-0.115-0.29-0.142-0.434-0.065
		l-1.654,0.883c-0.66,0.354-1.285,0.069-1.399-0.65l-0.288-1.802c-0.051-0.32-0.558-0.393-0.696-0.099l-0.779,1.648
		c-0.312,0.659-0.99,0.759-1.527,0.234l-1.34-1.312C7.621,0.641,7.442,0.617,7.301,0.696c-0.143,0.08-0.218,0.243-0.182,0.402
		L7.51,2.882C7.583,3.215,7.528,3.5,7.357,3.685c-0.185,0.2-0.493,0.28-0.91,0.22H6.444l-1.879-0.32
		C4.4,3.557,4.241,3.642,4.17,3.792C4.1,3.94,4.137,4.119,4.26,4.228l1.412,1.24c0.277,0.244,0.409,0.52,0.373,0.777
		C6.009,6.501,5.804,6.729,5.469,6.885L3.767,7.68c-0.15,0.07-0.235,0.231-0.209,0.393C3.585,8.236,3.714,8.348,3.879,8.382"/>
</g>
</svg>
