<?xml version="1.0" encoding="iso-8859-1"?>
<!-- Generator: Adobe Illustrator 16.0.0, SVG Export Plug-In . SVG Version: 6.00 Build 0)  -->
<!DOCTYPE svg PUBLIC "-//W3C//DTD SVG 1.1//EN" "http://www.w3.org/Graphics/SVG/1.1/DTD/svg11.dtd">
<svg version="1.1" id="Layer_1" xmlns="http://www.w3.org/2000/svg" xmlns:xlink="http://www.w3.org/1999/xlink" x="0px" y="0px"
	 viewBox="0 0 18 18" style="enable-background:new 0 0 18 18;" xml:space="preserve">
<g>
	<defs>
		<rect id="SVGID_1_" width="18" height="18"/>
	</defs>
	<clipPath id="SVGID_2_">
		<use xlink:href="#SVGID_1_"  style="overflow:visible;"/>
	</clipPath>
	<path style="clip-path:url(#SVGID_2_);fill-rule:evenodd;clip-rule:evenodd;fill:#00697D;" d="M8.5,16.799c0,0.664-0.447,1.2-1,1.2
		s-1-0.536-1-1.2c0-0.662,1-2.8,1-2.8S8.5,16.137,8.5,16.799"/>
	<path style="clip-path:url(#SVGID_2_);fill-rule:evenodd;clip-rule:evenodd;fill:#00697D;" d="M4.5,16.799c0,0.664-0.447,1.2-1,1.2
		s-1-0.536-1-1.2c0-0.662,1-2.8,1-2.8S4.5,16.137,4.5,16.799"/>
	<path style="clip-path:url(#SVGID_2_);fill-rule:evenodd;clip-rule:evenodd;fill:#00697D;" d="M12.5,16.799
		c0,0.664-0.447,1.2-1,1.2s-1-0.536-1-1.2c0-0.662,1-2.8,1-2.8S12.5,16.137,12.5,16.799"/>
	<path style="clip-path:url(#SVGID_2_);fill-rule:evenodd;clip-rule:evenodd;fill:#BEBDBD;" d="M12,7
		c-0.018,0-0.033,0.005-0.05,0.005C11.708,5.31,10.263,4,8.5,4C6.567,4,5,5.567,5,7.5C5,7.776,4.776,8,4.5,8S4,7.776,4,7.5
		c0-0.494,0.1-0.962,0.248-1.408C4.007,6.037,3.759,6,3.5,6C1.567,6,0,7.567,0,9.501c0,1.933,1.567,3.5,3.5,3.5H12
		c1.656,0,3-1.345,3-3C15,8.345,13.656,7,12,7"/>
	<path style="clip-path:url(#SVGID_2_);fill:#C88C32;" d="M16.512,5.379l1.338-0.799c0.117-0.072,0.176-0.212,0.141-0.345
		c-0.037-0.131-0.152-0.225-0.292-0.226l-1.622-0.023c-0.314-0.013-0.554-0.125-0.674-0.316c-0.113-0.178-0.115-0.418-0.005-0.68
		l0.587-1.398c0.054-0.123,0.016-0.27-0.089-0.356c-0.103-0.085-0.251-0.092-0.363-0.016l-1.293,0.87
		c-0.515,0.348-1.056,0.164-1.21-0.42l-0.391-1.465c-0.068-0.26-0.493-0.277-0.585-0.023l-0.505,1.427
		c-0.202,0.571-0.752,0.71-1.242,0.322L9.09,0.96C8.985,0.876,8.834,0.872,8.725,0.948c-0.111,0.077-0.16,0.22-0.116,0.348
		l0.472,1.441c0.037,0.113,0.044,0.215,0.043,0.314c0.587,0.084,1.137,0.288,1.633,0.582c0.425-0.267,0.93-0.414,1.468-0.393
		c1.419,0.058,2.521,1.257,2.465,2.673c-0.014,0.339-0.096,0.658-0.228,0.95c0.402,0.316,0.747,0.7,1.004,1.145
		c0.132-0.059,0.288-0.095,0.489-0.082l1.58,0.103c0.141-0.002,0.264-0.074,0.31-0.204c0.046-0.128,0.001-0.272-0.111-0.35
		l-1.271-0.907c-0.25-0.178-0.383-0.394-0.375-0.611C16.098,5.742,16.246,5.538,16.512,5.379"/>
</g>
</svg>
