<?xml version="1.0" encoding="iso-8859-1"?>
<!-- Generator: Adobe Illustrator 16.0.0, SVG Export Plug-In . SVG Version: 6.00 Build 0)  -->
<!DOCTYPE svg PUBLIC "-//W3C//DTD SVG 1.1//EN" "http://www.w3.org/Graphics/SVG/1.1/DTD/svg11.dtd">
<svg version="1.1" id="Layer_1" xmlns="http://www.w3.org/2000/svg" xmlns:xlink="http://www.w3.org/1999/xlink" x="0px" y="0px"
	 viewBox="0 0 18 18" style="enable-background:new 0 0 18 18;" xml:space="preserve">
<g>
	<defs>
		<rect id="SVGID_1_" width="18" height="18"/>
	</defs>
	<clipPath id="SVGID_2_">
		<use xlink:href="#SVGID_1_"  style="overflow:visible;"/>
	</clipPath>
	<path style="clip-path:url(#SVGID_2_);fill-rule:evenodd;clip-rule:evenodd;fill:#BEBDBD;" d="M14.5,4
		c-0.213,0-0.42,0.026-0.622,0.062C13.454,2.308,11.884,1,10,1C7.791,1,6,2.791,6,5c0,0.276-0.224,0.5-0.5,0.5S5,5.275,5,5
		c0-0.622,0.128-1.212,0.337-1.762C4.918,3.088,4.47,3,4,3C1.791,3,0,4.791,0,7c0,2.209,1.791,4,4,4h10.5c1.933,0,3.5-1.566,3.5-3.5
		S16.433,4,14.5,4"/>
	<path style="clip-path:url(#SVGID_2_);fill:#8CB4B4;" d="M5.738,14.739H4.631l0.785-0.782c0.049-0.051,0.076-0.116,0.076-0.187
		c0-0.068-0.027-0.136-0.077-0.186c-0.091-0.089-0.278-0.093-0.369,0.001l-0.784,0.781v-1.106C4.262,13.117,4.146,13,4.001,13
		c-0.145,0-0.262,0.117-0.262,0.261v1.108l-0.782-0.783c-0.092-0.092-0.278-0.092-0.369,0C2.537,13.636,2.51,13.7,2.51,13.771
		c0,0.071,0.027,0.136,0.078,0.187l0.781,0.782H2.26C2.117,14.739,2,14.855,2,15c0,0.144,0.117,0.261,0.26,0.261h1.109l-0.781,0.782
		c-0.051,0.05-0.078,0.115-0.078,0.185c0,0.071,0.028,0.138,0.078,0.188c0.09,0.09,0.278,0.091,0.369-0.001l0.782-0.782v1.107
		c0,0.145,0.116,0.262,0.261,0.262c0.144,0,0.261-0.117,0.261-0.262v-1.108l0.785,0.784c0.09,0.09,0.278,0.089,0.371-0.001
		c0.1-0.102,0.1-0.27-0.001-0.372l-0.782-0.781h1.104C5.883,15.261,6,15.144,6,15C6,14.855,5.883,14.739,5.738,14.739"/>
	<path style="clip-path:url(#SVGID_2_);fill:#8CB4B4;" d="M10.738,14.739H9.631l0.785-0.782c0.049-0.051,0.076-0.116,0.076-0.187
		c0-0.068-0.027-0.136-0.077-0.186c-0.091-0.089-0.277-0.093-0.369,0.001l-0.783,0.781v-1.106C9.263,13.117,9.146,13,9.001,13
		s-0.262,0.117-0.262,0.261v1.108l-0.782-0.783c-0.092-0.092-0.278-0.092-0.369,0C7.537,13.636,7.51,13.7,7.51,13.771
		c0,0.071,0.027,0.136,0.078,0.187l0.781,0.782H7.26C7.117,14.739,7,14.855,7,15c0,0.144,0.117,0.261,0.26,0.261h1.109l-0.781,0.782
		c-0.051,0.05-0.078,0.115-0.078,0.185c0,0.071,0.028,0.138,0.078,0.188c0.09,0.09,0.278,0.091,0.369-0.001l0.782-0.782v1.107
		c0,0.145,0.116,0.262,0.261,0.262s0.262-0.117,0.262-0.262v-1.108l0.784,0.784c0.091,0.09,0.278,0.089,0.371-0.001
		c0.101-0.102,0.101-0.27-0.001-0.372l-0.781-0.781h1.104C10.883,15.261,11,15.144,11,15C11,14.855,10.883,14.739,10.738,14.739"/>
	<path style="clip-path:url(#SVGID_2_);fill:#8CB4B4;" d="M15.738,14.739h-1.107l0.785-0.782c0.049-0.051,0.076-0.116,0.076-0.187
		c0-0.068-0.027-0.136-0.077-0.186c-0.091-0.089-0.277-0.093-0.369,0.001l-0.783,0.781v-1.106c0-0.144-0.117-0.261-0.262-0.261
		s-0.262,0.117-0.262,0.261v1.108l-0.782-0.783c-0.092-0.092-0.277-0.092-0.369,0c-0.051,0.05-0.077,0.114-0.077,0.185
		c0,0.071,0.026,0.136,0.077,0.187l0.781,0.782h-1.108C12.117,14.739,12,14.855,12,15c0,0.144,0.117,0.261,0.261,0.261h1.108
		l-0.781,0.782c-0.051,0.05-0.077,0.115-0.077,0.185c0,0.071,0.027,0.138,0.077,0.188c0.091,0.09,0.278,0.091,0.369-0.001
		l0.782-0.782v1.107c0,0.145,0.116,0.262,0.261,0.262s0.262-0.117,0.262-0.262v-1.108l0.784,0.784
		c0.091,0.09,0.278,0.089,0.371-0.001c0.101-0.102,0.101-0.27-0.001-0.372l-0.781-0.781h1.104C15.883,15.261,16,15.144,16,15
		C16,14.855,15.883,14.739,15.738,14.739"/>
</g>
</svg>
